<svg width="332.5874755859375px" height="122.021240234375px" xmlns="http://www.w3.org/2000/svg" viewBox="83.70626220703124 13.9893798828125 332.5874755859375 122.021240234375" style="background: rgba(0, 0, 0, 0); --darkreader-inline-bgimage: initial; --darkreader-inline-bgcolor:rgba(0, 0, 0, 0);" data-darkreader-inline-bgimage="" data-darkreader-inline-bgcolor="" preserveAspectRatio="xMidYMid"><defs><filter id="editing-extrusion" x="-100%" y="-100%" width="300%" height="300%"><feFlood result="color1" flood-color="#444"></feFlood><feConvolveMatrix order="8,8" divisor="1" kernelMatrix="1 0 0 0 0 0 0 0 0 1 0 0 0 0 0 0 0 0 1 0 0 0 0 0 0 0 0 1 0 0 0 0 0 0 0 0 1 0 0 0 0 0 0 0 0 1 0 0 0 0 0 0 0 0 1 0 0 0 0 0 0 0 0 1" in="SourceAlpha" result="extrude"></feConvolveMatrix><feComposite in="color1" in2="extrude" result="comp-extrude" operator="in"></feComposite><feOffset dx="4" dy="4" in="comp-extrude" result="offset-extrude"></feOffset><feMerge><feMergeNode in="offset-extrude"></feMergeNode><feMergeNode in="SourceGraphic"></feMergeNode></feMerge></filter></defs><g filter="url(#editing-extrusion)"><g transform="translate(133.7518754005432, 98.70218849182129)"><path d="M6.21-31.17L6.21-31.17L6.21-31.17Q4.03-32.83 4.03-36.38L4.03-36.38L4.03-36.38Q4.03-39.94 6.37-41.79L6.37-41.79L6.37-41.79Q8.70-43.65 12.74-43.65L12.74-43.65L12.74-43.65Q15.30-43.65 21.38-42.75L21.38-42.75L25.73-42.11L25.73-42.11Q27.90-41.86 30.18-41.86L30.18-41.86L30.18-41.86Q32.45-41.86 33.98-42.82L33.98-42.82L33.98-42.82Q36.29-40.77 36.29-37.82L36.29-37.82L36.29-37.82Q36.29-34.88 33.66-32.77L33.66-32.77L33.66-32.77Q30.98-30.53 27.52-30.53L27.52-30.53L27.52-30.53Q25.86-30.53 23.17-30.98L23.17-30.98L23.17-30.98Q20.03-21.12 20.03-14.27L20.03-14.27L20.03-14.27Q20.03-7.42 23.49-3.84L23.49-3.84L23.49-3.84Q21.89-0.96 19.52 0.16L19.52 0.16L19.52 0.16Q17.15 1.28 13.60 1.28L13.60 1.28L13.60 1.28Q10.05 1.28 7.84-0.67L7.84-0.67L7.84-0.67Q5.63-2.62 5.63-6.66L5.63-6.66L5.63-6.66Q5.63-11.33 8.19-19.01L8.19-19.01L8.19-19.01Q10.75-26.62 14.59-32.45L14.59-32.45L14.59-32.45Q12.74-32.64 10.82-32.64L10.82-32.64L10.82-32.64Q6.85-32.64 6.21-31.17ZM53.89-17.98L53.89-17.98L53.89-17.98Q56.19-22.08 56.19-26.24L56.19-26.24L56.19-26.24Q56.19-28.99 54.21-28.99L54.21-28.99L54.21-28.99Q52.67-28.99 51.07-26.37L51.07-26.37L51.07-26.37Q49.41-23.74 48.90-20.35L48.90-20.35L45.57 0L32.32 1.28L38.85-32.64L49.41-33.92L48.26-27.46L48.26-27.46Q51.39-33.92 58.43-33.92L58.43-33.92L58.43-33.92Q62.14-33.92 64.16-32L64.16-32L64.16-32Q66.18-30.08 66.18-26.14L66.18-26.14L66.18-26.14Q66.18-22.21 63.58-19.71L63.58-19.71L63.58-19.71Q60.99-17.22 56.58-17.22L56.58-17.22L56.58-17.22Q54.66-17.22 53.89-17.98ZM87.74-2.69L87.74-2.69L87.74-2.69Q84.67 1.28 77.06 1.28L77.06 1.28L77.06 1.28Q73.09 1.28 70.21-1.12L70.21-1.12L70.21-1.12Q67.33-3.52 67.33-6.98L67.33-6.98L67.33-6.98Q67.33-8.90 67.52-9.86L67.52-9.86L71.81-32.64L84.80-33.92L80.13-9.22L80.13-9.22Q79.87-7.81 79.87-6.98L79.87-6.98L79.87-6.98Q79.87-3.26 82.11-3.26L82.11-3.26L82.11-3.26Q84.61-3.26 86.40-6.66L86.40-6.66L86.40-6.66Q86.98-7.74 87.23-9.15L87.23-9.15L91.78-32.64L104.38-33.92L99.65-8.96L99.65-8.96Q99.46-8 99.46-6.98L99.46-6.98L99.46-6.98Q99.46-5.95 100.03-4.83L100.03-4.83L100.03-4.83Q100.61-3.71 102.46-3.46L102.46-3.46L102.46-3.46Q102.08-1.92 100.74-0.90L100.74-0.90L100.74-0.90Q97.92 1.28 94.88 1.28L94.88 1.28L94.88 1.28Q91.84 1.28 90.05 0.19L90.05 0.19L90.05 0.19Q88.26-0.90 87.74-2.69ZM132.80-37.12L132.80-37.12L132.80-37.12Q133.70-38.66 133.70-40.32L133.70-40.32L133.70-40.32Q133.70-43.26 131.90-43.26L131.90-43.26L131.90-43.26Q129.15-43.26 128-37.63L128-37.63L127.04-32.64L132.86-32.64L132.48-29.76L126.46-29.76L120.70 0L107.78 1.28L113.92-29.76L109.38-29.76L109.95-32.64L114.43-32.64L115.78-37.70L115.78-37.70Q116.93-42.37 121.86-44.54L121.86-44.54L121.86-44.54Q125.44-46.08 131.46-46.08L131.46-46.08L131.46-46.08Q137.47-46.08 140.16-44.54L140.16-44.54L140.16-44.54Q142.85-43.01 142.85-40.96L142.85-40.96L142.85-40.96Q142.85-38.91 141.25-37.63L141.25-37.63L141.25-37.63Q139.65-36.35 137.86-36.35L137.86-36.35L137.86-36.35Q134.34-36.35 132.80-37.12ZM157.25-37.12L157.25-37.12L157.25-37.12Q158.14-38.66 158.14-40.32L158.14-40.32L158.14-40.32Q158.14-43.26 156.35-43.26L156.35-43.26L156.35-43.26Q153.60-43.26 152.45-37.63L152.45-37.63L151.49-32.64L157.31-32.64L156.93-29.76L150.91-29.76L145.15 0L132.22 1.28L138.37-29.76L133.82-29.76L134.40-32.64L138.88-32.64L140.22-37.70L140.22-37.70Q141.38-42.37 146.30-44.54L146.30-44.54L146.30-44.54Q149.89-46.08 155.90-46.08L155.90-46.08L155.90-46.08Q161.92-46.08 164.61-44.54L164.61-44.54L164.61-44.54Q167.30-43.01 167.30-40.96L167.30-40.96L167.30-40.96Q167.30-38.91 165.70-37.63L165.70-37.63L165.70-37.63Q164.10-36.35 162.30-36.35L162.30-36.35L162.30-36.35Q158.78-36.35 157.25-37.12ZM172.03-3.52L172.03-3.52L172.03-3.52Q170.05 1.28 163.71 1.28L163.71 1.28L163.71 1.28Q160.51 1.28 158.46-0.96L158.46-0.96L158.46-0.96Q156.80-2.82 156.80-4.93L156.80-4.93L156.80-4.93Q156.80-9.73 159.04-20.22L159.04-20.22L163.71-44.80L176.70-46.08L170.50-13.70L170.50-13.70Q169.41-8.96 169.41-7.30L169.41-7.30L169.41-7.30Q169.41-3.65 172.03-3.52ZM203.39-10.82L203.39-10.82L203.39-10.82Q204.99-9.73 204.99-7.33L204.99-7.33L204.99-7.33Q204.99-4.93 203.78-3.39L203.78-3.39L203.78-3.39Q202.56-1.86 200.58-0.83L200.58-0.83L200.58-0.83Q196.48 1.28 192.06 1.28L192.06 1.28L192.06 1.28Q187.65 1.28 185.06 0.32L185.06 0.32L185.06 0.32Q182.46-0.64 180.74-2.43L180.74-2.43L180.74-2.43Q177.34-5.82 177.34-12.03L177.34-12.03L177.34-12.03Q177.34-21.70 182.59-27.58L182.59-27.58L182.59-27.58Q188.22-33.92 198.02-33.92L198.02-33.92L198.02-33.92Q204.10-33.92 207.10-31.36L207.10-31.36L207.10-31.36Q209.34-29.44 209.34-26.30L209.34-26.30L209.34-26.30Q209.34-15.04 189.89-15.04L189.89-15.04L189.89-15.04Q189.63-13.38 189.63-11.97L189.63-11.97L189.63-11.97Q189.63-9.02 190.94-7.90L190.94-7.90L190.94-7.90Q192.26-6.78 194.69-6.78L194.69-6.78L194.69-6.78Q197.12-6.78 199.71-7.90L199.71-7.90L199.71-7.90Q202.30-9.02 203.39-10.82ZM190.34-17.79L190.34-17.79L190.34-17.79Q194.88-17.79 197.50-20.61L197.50-20.61L197.50-20.61Q200.13-23.30 200.13-27.58L200.13-27.58L200.13-27.58Q200.13-29.06 199.58-29.86L199.58-29.86L199.58-29.86Q199.04-30.66 197.95-30.66L197.95-30.66L197.95-30.66Q196.86-30.66 195.94-30.24L195.94-30.24L195.94-30.24Q195.01-29.82 194.05-28.42L194.05-28.42L194.05-28.42Q191.68-25.22 190.34-17.79ZM209.79-3.78L209.79-3.78L209.79-3.78Q209.79-6.21 211.62-7.52L211.62-7.52L211.62-7.52Q213.44-8.83 216.13-8.83L216.13-8.83L216.13-8.83Q218.82-8.83 220.51-7.52L220.51-7.52L220.51-7.52Q222.21-6.21 222.21-3.78L222.21-3.78L222.21-3.78Q222.21-1.34 220.32 0L220.32 0L220.32 0Q218.43 1.34 215.74 1.34L215.74 1.34L215.74 1.34Q213.06 1.34 211.42 0L211.42 0L211.42 0Q209.79-1.34 209.79-3.78ZM213.25-15.81L213.25-15.81L213.25-15.81Q213.25-16.26 213.38-16.90L213.38-16.90L218.37-42.62L218.37-42.62Q220.74-43.52 223.55-43.52L223.55-43.52L223.55-43.52Q226.37-43.52 227.84-41.73L227.84-41.73L227.84-41.73Q229.31-39.94 229.31-37.28L229.31-37.28L229.31-37.28Q229.31-34.62 228.29-31.65L228.29-31.65L228.29-31.65Q227.26-28.67 226.02-25.66L226.02-25.66L226.02-25.66Q224.77-22.66 223.71-19.55L223.71-19.55L223.71-19.55Q222.66-16.45 222.59-13.18L222.59-13.18L222.59-13.18Q221.12-11.52 218.56-11.52L218.56-11.52L218.56-11.52Q216-11.52 214.62-12.70L214.62-12.70L214.62-12.70Q213.25-13.89 213.25-15.81Z" fill="#ccc" data-darkreader-inline-fill="" style="--darkreader-inline-fill:#35393b;"></path></g></g><style>text {
  font-size: 64px;
  font-family: Arial Black;
  dominant-baseline: central;
  text-anchor: middle;
}</style><style class="darkreader darkreader--sync" media="screen"></style></svg>